<svg xmlns="http://www.w3.org/2000/svg" width="1920" height="155" viewBox="0 0 1920 155">
  <defs>
    <style>
      .cls-1 {
        fill: #4e4f57;
        fill-rule: evenodd;
      }
    </style>
  </defs>
  <path id="Forma_3" data-name="Forma 3" class="cls-1" d="M1,0C0.154,21.83.939,22.008,1,62c88.22-20.815,206.7,9.531,321,22,314.535,34.313,826.31-57.31,1071-12,293.18,54.29,453.39,64.6,528.73,41.814-0.7-54.631-.64-86.408-0.73-113.814C1646.79-.433,129.251.136,1,0Z"/>
  <path id="x_1" class="cls-1" d="M20.725,77.552l2.892-2.677,2.759,2.98L27.9,76.442l-2.759-2.98,2.907-2.691L26.691,69.3l-2.907,2.691-2.759-2.98L19.5,70.427l2.759,2.98-2.892,2.677Z"/>
  <path id="x_1_copia" data-name="x_1 copia" class="cls-1" d="M123.957,73.693l1.783-1.65,1.7,1.837,0.941-.871-1.7-1.837,1.791-1.659-0.837-.9-1.792,1.659-1.7-1.837L123.2,69.3l1.7,1.837-1.783,1.65Z"/>
  <path id="x_1_copia_2" data-name="x_1 copia 2" class="cls-1" d="M217.188,98.149l2.276-2.107,2.172,2.346,1.2-1.112-2.171-2.346,2.288-2.118-1.07-1.156L219.6,93.774l-2.171-2.346-1.2,1.112,2.171,2.346-2.276,2.107Z"/>
  <path id="x_1_copia_3" data-name="x_1 copia 3" class="cls-1" d="M328.976,137.813l1.823-1.688L332.538,138l0.962-.891-1.739-1.879,1.833-1.7-0.857-.925-1.832,1.7-1.739-1.879-0.963.891,1.739,1.879-1.823,1.687Z"/>
  <path id="x_1_copia_4" data-name="x_1 copia 4" class="cls-1" d="M411.724,102.224l1.285-1.189,1.225,1.323,0.678-.627-1.225-1.323,1.29-1.2-0.6-.652-1.291,1.195-1.225-1.323-0.678.628,1.225,1.323-1.284,1.189Z"/>
  <path id="x_1_copia_5" data-name="x_1 copia 5" class="cls-1" d="M484.09,118.536l2.069-1.915,1.973,2.131,1.092-1.01-1.973-2.132,2.078-1.924-0.971-1.05-2.079,1.924-1.973-2.131-1.092,1.011,1.973,2.131-2.068,1.915Z"/>
  <path id="x_1_copia_6" data-name="x_1 copia 6" class="cls-1" d="M606.956,99.687l1.78-1.648,1.7,1.835,0.94-.87-1.7-1.835,1.79-1.656-0.837-.9-1.789,1.656-1.7-1.835-0.939.87,1.7,1.835-1.781,1.648Z"/>
  <path id="x_1_copia_7" data-name="x_1 copia 7" class="cls-1" d="M673.859,115.433l2.108-1.951,2.01,2.172,1.113-1.03-2.011-2.172,2.119-1.961-0.991-1.07-2.118,1.961-2.011-2.172-1.112,1.03,2.01,2.172-2.108,1.951Z"/>
  <path id="x_1_copia_8" data-name="x_1 copia 8" class="cls-1" d="M739.492,89.117l1.322-1.224,1.262,1.363,0.7-.646-1.262-1.362,1.329-1.23-0.621-.671-1.329,1.23-1.261-1.363-0.7.646,1.261,1.362-1.322,1.224Z"/>
  <path id="x_1_copia_9" data-name="x_1 copia 9" class="cls-1" d="M799.7,95.452l1.775-1.643,1.693,1.829,0.937-.868-1.693-1.829L804.2,91.29l-0.834-.9-1.784,1.651-1.694-1.829-0.937.867,1.694,1.829-1.776,1.643Z"/>
  <path id="x_1_copia_10" data-name="x_1 copia 10" class="cls-1" d="M858.185,118.352l2.806-2.6,2.676,2.891,1.482-1.371-2.677-2.892,2.82-2.61-1.318-1.425-2.82,2.611-2.677-2.892L857,111.439l2.676,2.891-2.806,2.6Z"/>
  <path id="x_1_copia_11" data-name="x_1 copia 11" class="cls-1" d="M961.646,88.945l1.653-1.53,1.576,1.7,0.873-.808-1.577-1.7,1.661-1.538-0.776-.839L963.4,85.768l-1.576-1.7-0.873.808,1.576,1.7-1.652,1.53Z"/>
  <path id="x_1_copia_12" data-name="x_1 copia 12" class="cls-1" d="M1022.8,107.9l1.97-1.83,1.89,2.037,1.04-.966-1.88-2.037,1.98-1.839-0.92-1-1.99,1.839-1.89-2.037-1.04.966,1.89,2.037-1.98,1.83Z"/>
  <path id="x_1_copia_13" data-name="x_1 copia 13" class="cls-1" d="M1078.35,70.1l1.03-.952,0.98,1.059,0.55-.5-0.98-1.059,1.03-.956-0.48-.522-1.04.957-0.98-1.059-0.54.5,0.98,1.059-1.03.952Z"/>
  <path id="x_1_copia_14" data-name="x_1 copia 14" class="cls-1" d="M1130.7,85.161l1.78-1.644,1.69,1.83,0.94-.868-1.69-1.83L1135.2,81l-0.83-.9-1.79,1.652-1.69-1.83-0.94.868,1.7,1.83-1.78,1.644Z"/>
  <path id="x_1_copia_15" data-name="x_1 copia 15" class="cls-1" d="M1218.59,67.43l1.53-1.415,1.46,1.575,0.8-.747-1.46-1.576,1.54-1.422-0.72-.776-1.53,1.422-1.46-1.575-0.81.747,1.46,1.576-1.53,1.415Z"/>
  <path id="x_1_copia_16" data-name="x_1 copia 16" class="cls-1" d="M1286.05,112.738l1.98-1.834,1.89,2.042,1.05-.968-1.89-2.042,1.99-1.844-0.93-1.006-1.99,1.844-1.89-2.042-1.05.968,1.89,2.042-1.98,1.834Z"/>
  <path id="x_1_copia_17" data-name="x_1 copia 17" class="cls-1" d="M1367.86,92.142l1.56-1.448,1.49,1.612,0.83-.764-1.49-1.612,1.57-1.455-0.74-.794-1.57,1.455-1.49-1.612-0.83.764,1.49,1.612-1.56,1.448Z"/>
  <path id="x_1_copia_18" data-name="x_1 copia 18" class="cls-1" d="M1485.14,130.075l2.19-2.02,2.08,2.248,1.15-1.066-2.08-2.248,2.19-2.03-1.03-1.107-2.19,2.029-2.08-2.248-1.15,1.066,2.08,2.249-2.18,2.019Z"/>
  <path id="x_1_copia_19" data-name="x_1 copia 19" class="cls-1" d="M1636.8,125.882l1.44-1.333,1.37,1.484,0.76-.7-1.37-1.484,1.45-1.339-0.68-.731-1.45,1.339-1.37-1.484-0.76.7,1.37,1.484-1.44,1.333Z"/>
  <path id="x_1_copia_20" data-name="x_1 copia 20" class="cls-1" d="M1797.8,145.882l1.44-1.333,1.37,1.484,0.76-.7-1.37-1.484,1.45-1.339-0.68-.731-1.45,1.339-1.37-1.484-0.76.7,1.37,1.484-1.44,1.333Z"/>
</svg>
