<svg xmlns="http://www.w3.org/2000/svg" width="1920" height="158" viewBox="0 0 1920 158">
  <defs>
    <style>
      .cls-1 {
        fill: #e8d5c4;
        fill-rule: evenodd;
      }
    </style>
  </defs>
  <path id="Forma_1" data-name="Forma 1" class="cls-1" d="M-0.01-.067c1432.05-.684,1283.82,0,1919.82-0.177,0.08,31.947.25,64.109,0.49,90.78-47.18-10.007-94.08-17.565-138.54-20.424-204.4-13.146-426.14,47.851-1076.833,18C403.328,74.272,166.72,36.743-.347.459"/>
  <path id="Camara_1" class="cls-1" d="M259.269,73.645l1.341-.274a0.31,0.31,0,0,1,.366.242l0.072,0.352a0.31,0.31,0,0,1-.242.366l-1.341.274a0.309,0.309,0,0,1-.365-0.242l-0.072-.352A0.309,0.309,0,0,1,259.269,73.645Zm-0.821,1.622,16.783-3.428a2,2,0,0,1,2.36,1.559l1.9,9.31a2,2,0,0,1-1.559,2.36L261.15,88.5a2,2,0,0,1-2.359-1.559l-1.9-9.31A2,2,0,0,1,258.448,75.267Zm3.507-.716,0.621-1.7a0.934,0.934,0,0,1,.6-0.486c0.424-.1,6.629-1.354,6.629-1.354a0.888,0.888,0,0,1,.758.3c0.37,0.377,1.134,1.253,1.134,1.253Zm10.929-.248a0.957,0.957,0,1,1-.746,1.129A0.957,0.957,0,0,1,272.884,74.3Zm-5.655,1.155a4.325,4.325,0,1,1-3.373,5.1A4.325,4.325,0,0,1,267.229,75.457Zm0.19,0.93a3.368,3.368,0,1,1-2.626,3.974A3.369,3.369,0,0,1,267.419,76.388Z"/>
  <path id="Camara_2" class="cls-1" d="M476.361,79.774l0.8,0.348a0.309,0.309,0,0,1,.16.408l-0.045.105a0.31,0.31,0,0,1-.408.16l-0.8-.348a0.311,0.311,0,0,1-.16-0.408l0.046-.105A0.31,0.31,0,0,1,476.361,79.774Zm-0.816.81,10.865,4.731a2,2,0,0,1,1.035,2.632L485,93.567a2,2,0,0,1-2.632,1.035L471.5,89.871a2,2,0,0,1-1.035-2.632l2.447-5.619A2,2,0,0,1,475.545,80.584Zm2,0.872,1.115-.777a0.7,0.7,0,0,1,.577-0.04c0.3,0.122,4.653,2.026,4.653,2.026a0.664,0.664,0,0,1,.336.511c0.065,0.391.157,1.258,0.157,1.258Zm6.817,4.559a0.718,0.718,0,1,1-.945.372A0.718,0.718,0,0,1,484.365,86.015Zm-3.97-1.729a3.245,3.245,0,1,1-4.27,1.68A3.244,3.244,0,0,1,480.4,84.286Zm-0.284.653a2.527,2.527,0,1,1-3.326,1.308A2.526,2.526,0,0,1,480.111,84.939Z"/>
  <path id="Camara_3" class="cls-1" d="M629.571,136.547l0.5-.243a0.271,0.271,0,1,1,.236.488l-0.5.243A0.271,0.271,0,0,1,629.571,136.547Zm0.494,0.637,6.93-3.351a2,2,0,0,1,2.671.93l1.513,3.128a2,2,0,0,1-.93,2.671l-6.929,3.351a2,2,0,0,1-2.672-.929l-1.512-3.129A2,2,0,0,1,630.065,137.184Zm0.98-.474,0.1-1a0.516,0.516,0,0,1,.254-0.342c0.214-.111,3.372-1.631,3.372-1.631a0.493,0.493,0,0,1,.448.058c0.25,0.151.779,0.517,0.779,0.517Zm5.83-1.624a0.53,0.53,0,1,1-.246.708A0.531,0.531,0,0,1,636.875,135.086ZM634,136.477a2.394,2.394,0,1,1-1.114,3.2A2.395,2.395,0,0,1,634,136.477Zm0.229,0.473a1.865,1.865,0,1,1-.867,2.491A1.864,1.864,0,0,1,634.228,136.95Z"/>
  <path id="Camara_4" class="cls-1" d="M756.588,108.3l1.573-.019a0.272,0.272,0,0,1,.274.268l0.006,0.5a0.271,0.271,0,0,1-.268.274l-1.572.019a0.271,0.271,0,0,1-.275-0.268l-0.006-.5A0.271,0.271,0,0,1,756.588,108.3Zm-1.252,1.53,18.476-.22a2,2,0,0,1,2.023,1.976l0.124,10.363a2,2,0,0,1-1.976,2.024l-18.476.22a2,2,0,0,1-2.023-1.976l-0.124-10.363A2,2,0,0,1,755.336,109.832Zm3.935-.046,0.99-1.654a0.993,0.993,0,0,1,.722-0.387c0.463-.019,7.2-0.086,7.2-0.086a0.944,0.944,0,0,1,.732.465c0.31,0.467.933,1.535,0.933,1.535Zm11.467,1.931a1.018,1.018,0,1,1-1.006,1.03A1.017,1.017,0,0,1,770.738,111.717Zm-6.139.073a4.6,4.6,0,1,1-4.546,4.656A4.6,4.6,0,0,1,764.6,111.79Zm0.012,1.01a3.583,3.583,0,1,1-3.54,3.625A3.582,3.582,0,0,1,764.611,112.8Z"/>
  <path id="Camara_5" class="cls-1" d="M912.943,103.531l0.5-.194a0.261,0.261,0,1,1,.188.488l-0.5.193A0.261,0.261,0,1,1,912.943,103.531Zm0.492,0.625,6.788-2.617a2,2,0,0,1,2.585,1.147l1.153,2.99a2,2,0,0,1-1.146,2.586l-6.788,2.617a2,2,0,0,1-2.586-1.147l-1.153-2.991A2,2,0,0,1,913.435,104.156Zm0.912-.352,0.176-.95a0.5,0.5,0,0,1,.272-0.309c0.214-.089,3.369-1.3,3.369-1.3a0.474,0.474,0,0,1,.425.09c0.228,0.166.708,0.559,0.708,0.559Zm5.729-1.1a0.511,0.511,0,1,1-.293.661A0.511,0.511,0,0,1,920.076,102.707Zm-2.874,1.108a2.308,2.308,0,1,1-1.323,2.984A2.309,2.309,0,0,1,917.2,103.815Zm0.182,0.473a1.8,1.8,0,1,1-1.03,2.323A1.8,1.8,0,0,1,917.384,104.288Z"/>
  <path id="Camara_6" class="cls-1" d="M1032.65,125.462l0.91,0.16a0.258,0.258,0,0,1,.21.3l-0.03.185a0.263,0.263,0,0,1-.3.212l-0.91-.16a0.258,0.258,0,0,1-.21-0.3l0.03-.185A0.263,0.263,0,0,1,1032.65,125.462Zm-0.48.965,11.16,1.973a2.006,2.006,0,0,1,1.63,2.318l-1.01,5.712a2.006,2.006,0,0,1-2.32,1.622l-11.17-1.974a2.006,2.006,0,0,1-1.62-2.317l1.01-5.713A2,2,0,0,1,1032.17,126.427Zm2.02,0.356,0.87-.983a0.683,0.683,0,0,1,.54-0.168c0.31,0.046,4.83.855,4.83,0.855a0.644,0.644,0,0,1,.43.4c0.15,0.353.43,1.148,0.43,1.148Zm7.44,2.749a0.694,0.694,0,1,1-.24,1.368A0.694,0.694,0,0,1,1041.63,129.532Zm-4.12-.729a3.14,3.14,0,1,1-3.64,2.545A3.142,3.142,0,0,1,1037.51,128.8Zm-0.12.678a2.445,2.445,0,1,1-2.84,1.982A2.448,2.448,0,0,1,1037.39,129.481Z"/>
  <path id="Camara_7" class="cls-1" d="M1190.57,110.089l0.76,0.036a0.172,0.172,0,0,1,.16.185V110.5a0.184,0.184,0,0,1-.19.169l-0.75-.037a0.174,0.174,0,0,1-.17-0.185l0.01-.192A0.168,0.168,0,0,1,1190.57,110.089Zm0.21,0.805,7.78,0.376a2,2,0,0,1,1.9,2.094l-0.17,3.528a2,2,0,0,1-2.09,1.9l-7.78-.376a2,2,0,0,1-1.9-2.094l0.17-3.528A2,2,0,0,1,1190.78,110.894Zm1.11,0.054,0.57-.834a0.528,0.528,0,0,1,.39-0.18c0.25,0,3.77.182,3.77,0.182a0.5,0.5,0,0,1,.37.266c0.15,0.255.44,0.834,0.44,0.834Zm5.95,1.373a0.534,0.534,0,1,1-.56.507A0.527,0.527,0,0,1,1197.84,112.321Zm-3.22-.156a2.413,2.413,0,1,1-2.53,2.293A2.407,2.407,0,0,1,1194.62,112.165Zm-0.03.529a1.879,1.879,0,1,1-1.96,1.786A1.88,1.88,0,0,1,1194.59,112.694Z"/>
  <path id="Camara_8" class="cls-1" d="M1308.73,99.534l0.35-.089a0.183,0.183,0,0,1,.22.128,0.185,0.185,0,0,1-.13.215l-0.36.089a0.172,0.172,0,0,1-.21-0.128A0.177,0.177,0,0,1,1308.73,99.534Zm0.9,0.3,3.53-.887a2,2,0,0,1,2.43,1.452l0.21,0.853a2,2,0,0,1-1.45,2.427l-3.53.887a1.994,1.994,0,0,1-2.42-1.452l-0.22-.853A2,2,0,0,1,1309.63,99.837Zm0.02,0,0.2-.625a0.317,0.317,0,0,1,.2-0.185c0.16-.043,2.38-0.6,2.38-0.6a0.307,0.307,0,0,1,.27.1c0.14,0.13.43,0.434,0.43,0.434Zm3.94-.267a0.346,0.346,0,1,1-.25.42A0.345,0.345,0,0,1,1313.59,99.567Zm-2.02.508a1.563,1.563,0,1,1-1.14,1.9A1.559,1.559,0,0,1,1311.57,100.075Zm0.08,0.333a1.218,1.218,0,1,1-.88,1.478A1.224,1.224,0,0,1,1311.65,100.408Z"/>
  <path id="Camara_9" class="cls-1" d="M1426.78,122.653l0.68,0.117a0.182,0.182,0,0,1,.15.2l-0.03.158a0.177,0.177,0,0,1-.2.144l-0.68-.116a0.175,0.175,0,0,1-.15-0.2l0.03-.158A0.174,0.174,0,0,1,1426.78,122.653Zm0.21,0.795,7,1.194a1.993,1.993,0,0,1,1.63,2.308L1435.1,130a2,2,0,0,1-2.31,1.635l-6.99-1.194a1.992,1.992,0,0,1-1.63-2.308l0.52-3.046A2,2,0,0,1,1426.99,123.448Zm0.92,0.157,0.63-.715a0.489,0.489,0,0,1,.38-0.124c0.23,0.032,3.51.6,3.51,0.6a0.465,0.465,0,0,1,.31.29c0.11,0.255.32,0.829,0.32,0.829Zm5.4,1.956a0.5,0.5,0,0,1-.17.991A0.5,0.5,0,0,1,1433.31,125.561Zm-2.99-.51a2.271,2.271,0,1,1-2.62,1.857A2.272,2.272,0,0,1,1430.32,125.051Zm-0.08.492a1.769,1.769,0,1,1-2.05,1.446A1.762,1.762,0,0,1,1430.24,125.543Z"/>
  <path id="Camara_10" class="cls-1" d="M1547.95,88.793l0.42-.058a0.185,0.185,0,0,1,.2.151v0.026a0.184,0.184,0,0,1-.15.2l-0.42.058a0.185,0.185,0,0,1-.2-0.151V88.993A0.177,0.177,0,0,1,1547.95,88.793Zm0.8,0.447,4.17-.583a2.008,2.008,0,0,1,2.26,1.7l0.17,1.235a2,2,0,0,1-1.71,2.258l-4.17.583a1.993,1.993,0,0,1-2.25-1.7l-0.18-1.235A2,2,0,0,1,1548.75,89.24Zm0.16-.023,0.29-.645a0.342,0.342,0,0,1,.24-0.174c0.17-.028,2.6-0.364,2.6-0.364a0.346,0.346,0,0,1,.29.134c0.13,0.155.41,0.513,0.41,0.513Zm4.25,0.169a0.375,0.375,0,0,1,.42.317,0.368,0.368,0,0,1-.32.42A0.372,0.372,0,1,1,1553.16,89.386Zm-2.22.311a1.68,1.68,0,1,1-1.43,1.9A1.669,1.669,0,0,1,1550.94,89.7Zm0.05,0.365a1.309,1.309,0,1,1-1.12,1.478A1.314,1.314,0,0,1,1550.99,90.062Z"/>
  <path id="Camara_11" class="cls-1" d="M1743.65,93.83l1.53,0.136a0.174,0.174,0,0,1,.16.192l-0.05.572a0.18,0.18,0,0,1-.19.161l-1.53-.136a0.181,0.181,0,0,1-.16-0.192l0.05-.572A0.18,0.18,0,0,1,1743.65,93.83Zm-0.96,1.269,15.95,1.419a2,2,0,0,1,1.82,2.169l-0.78,8.757a2,2,0,0,1-2.17,1.815l-15.95-1.419a2,2,0,0,1-1.82-2.169l0.78-8.757A2,2,0,0,1,1742.69,95.1Zm3.27,0.291,1.03-1.377a0.874,0.874,0,0,1,.67-0.279c0.41,0.025,6.39.568,6.39,0.568a0.83,0.83,0,0,1,.6.477c0.24,0.442.69,1.444,0.69,1.444Zm9.99,2.737a0.907,0.907,0,1,1-.98.823A0.9,0.9,0,0,1,1755.95,98.127Zm-5.45-.484a4.1,4.1,0,1,1-4.44,3.718A4.095,4.095,0,0,1,1750.5,97.643Zm-0.08.9a3.19,3.19,0,1,1-3.46,2.9A3.188,3.188,0,0,1,1750.42,98.539Z"/>
</svg>
